ply
        format ascii 1.0
        element vertex 25
        property float x
        property float y
        property float z
        property uchar red
        property uchar green 
        property uchar blue
        element face 40
        property list uchar int vertex_index 
        end_header
        -0.48 -0.28 1.78 136 136 136
-0.15 -0.24 1.27 136 136 136
-0.20 -0.16 1.33 136 136 136
-0.00 0.00 0.00 136 136 136
-0.00 0.00 0.00 136 136 136
-0.16 -0.24 1.28 136 136 136
-0.00 0.00 0.00 136 136 136
-0.00 0.00 0.00 136 136 136
-0.48 -0.28 1.78 136 136 136
-0.34 0.41 0.98 136 136 136
-0.16 -0.24 1.28 136 136 136
-0.20 -0.17 1.33 136 136 136
-0.14 -0.21 1.25 136 136 136
-0.34 0.41 0.98 136 136 136
-0.16 -0.24 1.28 136 136 136
-0.20 -0.17 1.33 136 136 136
0.01 -0.23 1.19 136 136 136
-0.16 -0.24 1.28 136 136 136
-0.20 -0.17 1.33 136 136 136
-0.34 0.42 0.99 136 136 136
-0.34 0.42 1.00 136 136 136
-0.16 -0.24 1.28 136 136 136
-0.33 0.42 1.00 136 136 136
-0.21 -0.18 1.33 136 136 136
-0.16 -0.23 1.27 136 136 136
3 22 2 16 
3 6 22 4 
3 13 2 22 
3 13 0 2 
3 0 7 8 
3 0 13 7 
3 13 19 6 
3 13 3 7 
3 3 13 6 
3 7 3 4 
3 3 6 4 
3 2 12 16 
3 0 23 2 
3 23 0 8 
3 6 20 22 
3 19 20 6 
3 20 13 22 
3 20 19 13 
3 15 12 2 
3 15 23 12 
3 23 24 12 
3 23 18 2 
3 15 18 23 
3 24 1 12 
3 12 1 16 
3 21 23 8 
3 21 24 23 
3 11 15 2 
3 18 11 2 
3 11 18 15 
3 17 10 8 
3 10 21 8 
3 21 5 24 
3 10 5 21 
3 5 1 24 
3 5 10 17 
3 14 5 17 
3 5 14 1 
3 14 17 16 
3 1 14 16 
